<?xml version="1.0" standalone="no"?><!DOCTYPE svg PUBLIC "-//W3C//DTD SVG 1.1//EN" "http://www.w3.org/Graphics/SVG/1.1/DTD/svg11.dtd"><svg t="1509347502813" class="icon" style="" viewBox="0 0 1024 1024" version="1.1" xmlns="http://www.w3.org/2000/svg" p-id="11165" xmlns:xlink="http://www.w3.org/1999/xlink" width="200" height="200"><defs><style type="text/css"></style></defs><path d="M438.857143 848.108844c-231.619048 0-419.70068-188.081633-419.70068-419.70068S207.238095 8.707483 438.857143 8.707483s419.70068 188.081633 419.70068 419.70068S670.47619 848.108844 438.857143 848.108844zM438.857143 94.040816C254.258503 94.040816 102.748299 243.809524 102.748299 428.408163s149.768707 334.367347 334.367347 334.367347S773.22449 613.006803 773.22449 428.408163 623.455782 94.040816 438.857143 94.040816z" p-id="11166" fill="#dbdbdb"></path><path d="M764.517007 639.129252 980.462585 853.333333c36.571429 36.571429 36.571429 97.52381 0 134.095238l0 0c-36.571429 36.571429-97.52381 36.571429-134.095238 0L630.421769 773.22449" p-id="11167" fill="#dbdbdb"></path></svg>